<?xml version="1.0" encoding="UTF-8"?>
<svg id="a" data-name="Layer 1" xmlns="http://www.w3.org/2000/svg" viewBox="0 0 204.53 199.01">
  <g id="b" data-name="D4vyjQ.tif">
    <g>
      <path d="m190.13,33.28c-.34-4.77-1.42-9.49-2.05-14.25-.3-2.3-.63-4.68-.36-6.95.27-2.25,1.2-4.44,1.99-6.61.18-.49.96-.76,1.46-1.12l.5.43c.23-1.57.45-3.15.68-4.72.21-.02.42-.04.63-.06.24.67.47,1.34.74,2.1.36-.14.73-.3,1.12-.45.21.48.37.72.43.99,1.3,6.47,2.6,12.94,3.89,19.42l2.03,6.73c.78,6.04,1.44,12.1,2.06,18.15.84,8.29,1.77,16.58.98,24.94-.64,6.87-1.05,13.74-3.41,20.37-1.35,3.78-1.64,7.93-2.81,11.79-1.55,5.14-3.56,10.1-6.79,14.51-4,5.47-7.54,11.3-11.86,16.5-3.33,4.01-7.51,7.34-11.39,10.88-4.81,4.38-10.56,7.29-16.26,10.27-4.79,2.5-9.55,5.11-14.51,7.23-4.75,2.04-9.67,3.76-14.65,5.18-6.96,2-14.05,3.5-21.05,5.38-9.76,2.62-19.68,4.31-29.74,5.2-.27.02-.54.13-1.46.36,3.04,1.65,5.59,3,8.11,4.4,1.85,1.03,3.69,2.1,5.5,3.2,2.17,1.32,4.56,2.42,6.38,4.12,1.8,1.67,3.05,3.94,4.41,6.03.14.22-.54,1.39-.95,1.46-1.15.2-2.53.43-3.52,0-7.32-3.23-14.59-6.59-21.84-9.99-3.9-1.83-7.79-3.69-11.58-5.73-2.64-1.43-5.1-3.2-7.66-4.78-.54-.33-1.23-.82-1.74-.71-2.06.46-3.11-.11-2.74-2.7-.72.54-1.13.84-1.62,1.21-.11-.2-.27-.36-.28-.52-.27-4.57,1.91-8.15,4.23-11.89,2.43-3.91,6.37-5.7,9.64-8.42,3.86-3.21,7.65-6.5,11.51-9.7,1.84-1.53,3.67-3.13,5.71-4.35.97-.58,2.43-.35,3.67-.46,1.4-.13,2.23.44,2.88,1.78.53,1.09,1.66,1.87,2.45,2.85.15.19.11.71-.05.95-1.07,1.62-2.09,3.3-3.33,4.78-2.25,2.69-4.59,5.32-7,7.86-2.86,3.01-5.84,5.91-9.13,9.21,4.61-.46,9.06-.51,13.35-1.4,9.35-1.93,18.72-3.9,27.88-6.55,11.23-3.25,22.47-6.68,33.31-11.01,8.47-3.38,16.1-8.57,23.22-14.47,8.93-7.39,15.09-16.7,19.73-27.09,2.22-4.95,3.53-10.31,5.61-15.32,3.1-7.44,4.44-15.26,5.77-23.13,1.18-6.93.58-13.79.02-20.68-.38-4.67-.52-9.4-1.45-13.97"/>
      <g>
        <path d="m18,87.47c.74-.19,1.46-.19,2.18,0,.72.19,1.27.51,1.66.96.45.51.67.87.67,1.08s.08.31.24.31c.19,0,.36.3.5.89s.18,1.14.12,1.66c-.19,1.28-.66,2.38-1.39,3.31-.29.38-.43.72-.43,1.01s-.18.64-.53,1.06c-.29.38-.36.63-.22.74.14.11.63.25,1.46.41.8.16,1.67.58,2.62,1.27.94.69,1.58,1.37,1.9,2.04,1.02,2.14.93,4.58-.29,7.3-.61,1.25-1.84,2.46-3.7,3.62-1.86,1.17-3.66,1.85-5.42,2.04-1.02.13-2.45.56-4.27,1.3-1.6.64-2.62,1.01-3.05,1.1-.43.1-.76.02-.98-.24-.13-.13-.25-.17-.36-.14-.11.03-.31.18-.6.43-.42.42-.8.67-1.15.77-.61.16-1.27-.3-1.99-1.37-.72-1.07-1.08-2.12-1.08-3.14,0-.32-.16-.86-.48-1.63-.32-.74-.5-1.46-.53-2.18-.03-.72.1-1.29.38-1.7.26-.42.38-.67.38-.77s.18-.53.53-1.3c.26-.54.79-1.94,1.61-4.2.82-2.26,1.34-3.78,1.56-4.58.16-.54.68-1.73,1.56-3.55.88-1.82,1.29-2.8,1.22-2.93-.13-.19.02-.47.43-.84.42-.37.74-.52.96-.46.32.1.58.08.77-.05.26-.19,1.14-.58,2.64-1.18,1.5-.59,2.53-.94,3.07-1.03Zm5.76,14.02c-.26-.22-.86-.39-1.82-.5-.96-.11-1.54-.09-1.73.07-.16.16-.65.3-1.46.41s-1.27.22-1.37.34-.51.38-1.25.82c-.74.43-1.31.86-1.73,1.27-.38.38-.67.58-.86.6-.19.02-.51-.09-.96-.31-.7-.35-1.04-.35-1.01,0,0,.06.02.13.05.19.1.26.06.43-.12.53-.18.1-.26.29-.26.58s-.15.75-.46,1.39c-.3.64-.38,1.1-.22,1.39.1.22.14.42.12.58-.02.16-.12.48-.31.96-.16.45-.32,1.04-.48,1.78-.03.16-.06.29-.07.38-.02.1-.02.18,0,.24.02.06.04.1.07.1h.14c.22-.06.8-.24,1.73-.53,1.09-.35,2.45-.85,4.08-1.49,1.63-.64,2.56-1.06,2.78-1.25.26-.22.52-.34.79-.34s.41-.08.41-.24.16-.24.48-.24.48-.06.48-.19.48-.67,1.44-1.63c.93-.99,1.54-1.94,1.85-2.86s.2-1.59-.31-2.04Zm-3.31-12.14c-.19-.38-.43-.6-.72-.65s-.91.02-1.87.22c-.51.06-1.23.26-2.16.58-.93.32-1.52.56-1.78.72-.38.22-.59.58-.62,1.06-.03.19,0,.29.1.29.13,0,.21.26.24.77.03.51.02,1.1-.02,1.78s-.14,1.22-.26,1.63c-.32,1.22-.48,2.21-.48,2.98.1-.19.22-.24.38-.14.26.16,1.06-.29,2.4-1.34.61-.51,1.38-1.23,2.3-2.16s1.39-1.46,1.39-1.58.24-.58.72-1.34c.42-.67.65-1.18.7-1.51.05-.34-.06-.76-.31-1.27Z" style="fill: #1a1311;"/>
        <path d="m41.47,95.03c.29.08.54,0,.77-.26.22-.26.67-.34,1.34-.24.67.1,1.31.16,1.92.19.61.03.91.12.91.26s.21.17.62.07c.35-.06.62.06.82.36.19.3.29.78.29,1.42s.09,1.02.26,1.13c.18.11.14.3-.1.58-.24.27-.44.86-.6,1.75-.29,1.6-.22,3.02.22,4.27.43,1.25,1.19,2.19,2.28,2.83,1.34.83,2.06,1.65,2.16,2.45.03.35-.26.7-.86,1.06-.45.26-.73.38-.84.38s-.23-.1-.36-.29c-.16-.29-.35-.43-.58-.43s-.74-.38-1.54-1.15c-.8-.77-1.49-1.54-2.06-2.3s-.95-1.06-1.13-.89c-.18.18-.26.37-.26.58s-.19.54-.58,1.01c-.38.46-.63.84-.74,1.13-.11.29-.26.43-.43.43s-.57.22-1.18.67c-.7.58-1.45.94-2.23,1.08-.78.14-1.4.04-1.85-.31-.16-.1-.54-.25-1.15-.46-.61-.21-.96-.46-1.06-.77-.1-.3-.22-.46-.36-.46s-.27-.25-.38-.74c-.11-.5-.24-.79-.38-.89-.14-.1-.22-.27-.22-.53s-.12-.52-.36-.79c-.24-.27-.42-1.06-.55-2.38-.06-.83-.07-1.44-.02-1.82.05-.38.18-.83.41-1.34.35-.8.75-1.42,1.2-1.87.38-.42.94-.88,1.66-1.39.72-.51,1.18-.77,1.37-.77s.77-.22,1.73-.67,1.44-.72,1.44-.82c0-.13.14-.15.43-.07Zm1.3,2.81c0-.29-.12-.44-.36-.46-.24-.02-.82.09-1.75.31-1.06.22-1.87.54-2.45.94s-1.07,1-1.49,1.8c-.38.67-.61,1.18-.67,1.54-.06.35-.08,1.02-.05,2.02.1,2.11.4,3.17.91,3.17.13,0,.19.11.19.34,0,.35.15.53.46.53s.65-.16,1.03-.48c.51-.42.84-.62.98-.62s.35-.29.62-.86.47-.86.6-.86.61-.9,1.44-2.69c.83-1.79,1.25-2.85,1.25-3.17-.1-.03-.19-.04-.29-.02-.1.02-.21.04-.34.07-.26.03-.42.02-.5-.05-.08-.06-.12-.21-.12-.43,0-.38.09-.58.26-.58s.26-.16.26-.48Z" style="fill: #1a1311;"/>
        <path d="m71.09,92.66c.13-.1.47-.15,1.03-.17.56-.02,1.14.04,1.75.17.54.1,1.05.35,1.51.77s.74.62.84.62c.16,0,.31.25.46.74.14.5.17.82.07.96-.1.14-.5.41-1.2.79-1.12.61-2.61.74-4.46.38l-.86-.14.82-.38c.54-.26.82-.45.82-.58,0-.16-.23-.34-.7-.55-.46-.21-.82-.28-1.08-.22-.48.06-.86.12-1.13.17-.27.05-.49.09-.65.12-.16.03-.26.07-.29.12s-.03.09,0,.12c.06.13-.14.34-.62.62-.48.29-.78.5-.91.62-1.25,1.38-1.95,2.06-2.11,2.06-.13,0-.48.44-1.06,1.32-.58.88-.99,1.62-1.25,2.23-.32.74-.53,1.65-.62,2.74-.1,1.09-.03,1.74.19,1.97.16.16.24.37.24.62s.21.58.62.96c.26.26.48.42.67.48s.48.06.86,0c.61-.06,1.38-.31,2.33-.74.94-.43,1.62-.7,2.02-.82.4-.11.6-.31.6-.6s.11-.39.34-.31c.22.08.34.04.34-.12,0-.1.25-.14.74-.14s1.04.04,1.63.12c.59.08,1.01.18,1.27.31.93.42,1.34.99,1.25,1.73-.03.35-.18.64-.43.86-.26.22-.77.46-1.54.72-.83.32-1.37.58-1.61.79-.24.21-.44.31-.6.31-.1,0-.44.13-1.03.38-.59.26-1.08.48-1.46.67-.22.13-.32.26-.29.38.03.1-.02.18-.14.26-.13.08-.3.14-.53.17-.22.03-.47.06-.74.07-.27.02-.55,0-.84-.05s-.56-.1-.82-.17c-.48-.19-.85-.39-1.1-.6-.26-.21-.38-.26-.38-.17,0,.13-.21-.02-.62-.46-.42-.43-.86-.94-1.32-1.51-.46-.58-.76-.99-.89-1.25-.58-1.18-.97-2.1-1.18-2.74-.21-.64-.34-1.41-.41-2.3-.06-1.22-.16-1.82-.29-1.82s-.19-.07-.19-.22.07-.17.22-.1c.14.08.34-.1.58-.55.24-.45.29-.67.14-.67s-.26.1-.34.29c-.08.19-.13.17-.14-.07-.02-.24.27-.78.86-1.63.59-.85.89-1.34.89-1.46s.24-.37.72-.72c.48-.35,1.02-.8,1.63-1.34.51-.48,1.28-.99,2.3-1.54,1.02-.54,1.73-.82,2.11-.82.35,0,.57-.06.65-.19s.62-.21,1.61-.24c.99-.03,1.57-.13,1.73-.29Z" style="fill: #1a1311;"/>
        <path d="m85.87,89.3c.35-.32.87-.45,1.56-.38.69.06,1.21.27,1.56.62.38.42.54.96.46,1.63-.08.67-.46,1.97-1.13,3.89-.13.32-.25.8-.36,1.44-.11.64-.18,1.18-.19,1.61-.02.43,0,.7.07.79.19,0,.5-.19.91-.58.42-.38.59-.62.53-.72-.03-.06-.04-.11-.02-.14.02-.03.07-.02.17.05.16.1,1.06-.3,2.69-1.2,1.47-.83,2.61-1.32,3.41-1.46.8-.14,1.52,0,2.16.41.51.35.86.75,1.06,1.2.19.45.26,1.06.19,1.82-.06.74-.22,1.34-.46,1.8-.24.46-.71,1.14-1.42,2.04-.7.8-1.19,1.32-1.46,1.56-.27.24-.62.41-1.03.5-.38.1-.78.29-1.2.58l-.58.48.62.58c1.06.93,1.71,1.39,1.97,1.39s.74-.26,1.44-.77,1.18-.96,1.44-1.34c.38-.54.75-.8,1.1-.77,1.06,0,1.7.18,1.92.53.22.35.08.91-.43,1.68-.48.7-.74,1.14-.77,1.3-.03.16-.3.65-.82,1.46-.51.82-.77,1.36-.77,1.63s-.1.49-.29.65c-.13.1-.28.16-.46.19-.18.03-.34.04-.48.02-.14-.02-.22-.07-.22-.17s-.28-.25-.84-.46c-.56-.21-.88-.43-.96-.67-.08-.24-.22-.36-.41-.36s-.51-.21-.96-.62c-.54-.54-1.24-1.17-2.09-1.87-.85-.7-1.38-1.12-1.61-1.25-.26-.16-.59-.41-1.01-.74s-.99-.5-1.73-.5c-.48,0-.78.03-.89.1-.11.06-.15.21-.12.43.03.38-.03.58-.19.58s-.24.27-.24.82-.08.89-.24,1.03c-.16.14-.32.78-.48,1.9-.1.86-.28,1.56-.55,2.09-.27.53-.57.83-.89.91-.32.08-.66-.04-1.01-.36-.32-.35-.56-.53-.72-.53s-.35-.42-.58-1.25c-.22-.83-.4-1.74-.53-2.74-.06-.61-.18-1.01-.36-1.2-.18-.19-.26-.58-.26-1.18s.1-.98.29-1.18c.38-.42.58-.45.58-.1,0,.06-.02.14-.05.24-.06.16-.09.25-.07.26.02.02.09-.06.22-.22.16-.22.24-.48.24-.77s-.1-.45-.29-.48c-.22,0-.21-.05.05-.14.64-.26.96-.83.96-1.73.03-.51.13-.82.29-.91s.19-.21.1-.34c-.16-.29.11-1.2.82-2.74.26-.58.37-.93.34-1.06-.03-.13.08-.32.34-.58.19-.19.3-.44.34-.74.03-.3-.05-.55-.24-.74-.19-.16-.19-.43,0-.82.22-.35.45-.92.67-1.7.22-.78.34-1.35.34-1.7s.19-.69.58-1.01Zm9.6,8.4c.1-.38.11-.59.05-.62-.06-.03-.24.08-.53.34-.29.32-.54.43-.77.34-.19-.06-.62.1-1.3.48s-1.26.82-1.78,1.3c-.38.38-.83.78-1.34,1.2l-.72.62.62-.14c.45-.06.71,0,.79.19.08.19.55.06,1.42-.38,2.08-1.15,3.26-2.26,3.55-3.31Zm2.02,7.82c-.16,0-.14-.13.05-.38.19-.26.37-.38.53-.38s.14.13-.05.38-.37.38-.53.38Z" style="fill: #1a1311;"/>
      </g>
    </g>
  </g>
</svg>