<?xml version="1.0" encoding="UTF-8"?>
<svg id="b" data-name="图层 2" xmlns="http://www.w3.org/2000/svg" viewBox="0 0 224.7 56.46" >
  <g id="c" data-name="图层 1">
    <path d="m64.36,10.44c0,3.91-.05,7.36.03,10.81.03,1.44.08,2.87-1.7,3.09-1.79.21-2.23-1.25-2.41-2.62-.66-5.12-.96-10.23.66-15.27,1.03-3.23,1.65-3.48,4.72-2.2,1.8.75,3.73,1.56,5.63,1.61,1.75.05,3.62-.67,5.27-1.42,1.22-.55,2.43-1.06,3.06.19.38.75.04,2.36-.58,3.01-2.37,2.46-5.58,2.66-8.87,2.5.06.34.03.62.15.76,9.14,10.83,19.14,20.74,31.91,27.2,4.44,2.25,9.39,3.87,14.28,4.75,9.43,1.69,17.7-1.49,24.5-8.04,3.22-3.1,6.03-6.69,8.69-10.31,5.45-7.4,11.57-14.05,19.65-18.62,13.97-7.91,28.28-7.41,42.61-1.18,3.81,1.66,7.31,4.04,10.89,6.19,1.32.79,2.61,1.98,1.32,3.66-1.22,1.58-2.41.52-3.65-.33-12.56-8.62-26.1-12.84-41.22-8.26-11.25,3.41-19.2,11.25-25.95,20.51-2.09,2.87-4.18,5.78-6.57,8.39-11.59,12.62-25.72,15.72-41.57,9.19-12.09-4.98-21.83-13.25-30.79-22.51-3.34-3.45-6.45-7.12-10.04-11.11Z"/>
    <g>
      <path d="m23.99,32.27c.29-.09.53-.15.73-.19.2-.04.4-.04.61,0,.21.04.54.08.98.12.45.04.68.1.71.17.02.07.11.11.25.11s.26.05.35.14.23.19.42.28c.19.09.3.32.31.68.03.42-.01.67-.13.77s-.45.14-1,.14c-.45,0-.72-.01-.82-.04-.1-.02-.16-.11-.19-.25-.05-.21-.21-.43-.48-.67l-.43-.36-.26.26c-.18.18-.42.33-.73.46-.31.13-.49.25-.54.37-.05.12-.16.18-.35.18s-.38.1-.6.31-.38.31-.49.31c-.1,0-.38.24-.84.72-.46.48-.7.78-.72.89,0,.11,0,.2.01.26,0,.06-.09.27-.29.61s-.37.79-.5,1.33c-.14.54-.16,1.07-.06,1.58.11.67.25,1.11.41,1.31.16.2.5.35,1.01.44.19.05.56,0,1.09-.16.54-.15.87-.28,1-.4.06-.08.16-.12.29-.12.1,0,.31-.11.65-.32s.53-.36.58-.44c.03-.08.17-.23.41-.46.16-.16.3-.26.42-.29.12-.03.35-.04.68-.02,1.12.05,1.66.29,1.61.72,0,.14-.1.31-.29.5-.24.26-.36.43-.36.53s-.04.14-.13.14-.36.23-.83.7c-.96.93-1.83,1.47-2.62,1.63-.46.1-1.02.14-1.66.13-.64,0-1.01-.06-1.1-.16-.05-.06-.15-.1-.31-.1-.13,0-.38-.18-.76-.53-.38-.35-.6-.63-.68-.84-.08-.19-.16-.34-.24-.46-.11-.18-.24-.45-.4-.83-.15-.38-.24-.64-.25-.78-.03-.19-.08-.34-.14-.46-.06-.11-.07-.19-.02-.24.05-.05.03-.11-.05-.19-.08-.11-.08-.43,0-.95s.19-.95.34-1.28c.18-.38.26-.63.26-.74,0-.18.21-.58.64-1.2.42-.62.81-1.11,1.16-1.46.18-.19.43-.42.77-.67.34-.26.53-.38.58-.38s.22-.11.5-.32c.29-.22.54-.33.76-.35.22-.02.47-.07.76-.16Z" />
      <path d="m37.41,26.77c.16-.08.39-.13.7-.16.3-.02.49,0,.55.08.21.24.28.52.22.84-.05.22-.19.36-.42.42s-.39.08-.48.06c-.09-.02-.16.02-.23.12-.06.11-.1.26-.12.43-.02.06-.06.09-.14.07-.05,0-.1.03-.16.08s-.11.13-.16.23c-.1.22-.21.41-.34.55-.21.24-.54.85-1.01,1.82-.05.11-.24.53-.58,1.25-.35.72-.53,1.11-.53,1.18s-.05.14-.16.23c-.1.09-.16.2-.16.32,0,.26-.22.94-.67,2.06-.21.5-.4,1.18-.58,2.04-.16.77-.22,1.17-.18,1.2.04.03.01.14-.08.34-.1.19-.11.35-.05.47s.07.21.02.28c-.03.02-.02.03.05.05.3.02.59-.06.86-.22.14-.08.31-.25.49-.52.18-.26.34-.46.47-.59.16-.18.2-.3.12-.38-.03-.03-.08-.03-.14.01-.06.04-.1.04-.1-.01-.02-.06.05-.18.19-.34.1-.11.21-.18.35-.2.14-.02.45-.03.95-.01.72.02,1.13.09,1.22.22.11.14.16.26.14.36-.02.1-.1.19-.26.29-.19.13-.28.24-.26.34,0,.27-.3.77-.89,1.49-.26.32-.39.54-.41.66-.02.12-.06.2-.14.23s-.12.1-.12.19-.12.16-.35.2c-.23.04-.44.16-.62.36-.18.2-.41.3-.68.3-.51-.02-.78-.09-.82-.22-.05-.11-.12-.17-.22-.17-.08,0-.22-.14-.43-.41-.21-.27-.31-.46-.31-.55,0-.06-.12-.27-.36-.62-.16-.24-.26-.44-.29-.6-.03-.16-.06-.46-.07-.89-.02-1.01.14-2.08.46-3.22.11-.4.18-.64.19-.72.02-.08.08-.21.18-.4.1-.18.16-.32.18-.4.02-.11.14-.45.37-1.02s.44-1.04.61-1.4c.24-.53.46-1.01.67-1.45.21-.44.47-.9.79-1.39.32-.49.48-.76.48-.83,0-.08.22-.35.65-.8s.69-.68.77-.68.18-.06.3-.19c.12-.13.29-.26.52-.38Zm-3.07,12.65s-.05-.04-.05-.11.04-.11.11-.11.09.04.05.11c-.04.07-.08.11-.11.11Z"/>
      <path d="m45.13,34.52c.06-.06.16-.08.29-.05s.21.1.24.19c.05.11.15.17.31.17s.28.06.36.18c.08.12.1.27.07.44-.05.16-.17.36-.37.61-.2.25-.35.37-.44.37-.13,0-.47.31-1.02.94-.55.62-.91,1.1-1.07,1.44-.18.35-.27.57-.28.65,0,.08.04.16.16.24.14.11.39.21.74.3.35.09.53.18.53.29s.06.21.17.32c.18.13.24.32.18.56s-.22.51-.49.78c-.35.34-.64.54-.86.62s-.34.18-.34.31c0,.05-.01.08-.04.1-.02.02-.07.02-.13.01-.06,0-.14-.03-.24-.06-.1-.03-.24-.08-.43-.14-.37-.14-.73-.5-1.08-1.08-.35-.58-.56-1.14-.62-1.68-.03-.32.11-.81.43-1.46.16-.3.27-.53.34-.68.06-.15.11-.28.13-.37s.02-.16,0-.18c-.02-.02-.08-.04-.16-.04-.14,0-.44-.13-.88-.38-.44-.26-.72-.36-.83-.31-.18.06-.26,0-.26-.17,0-.14.07-.27.22-.38.42-.32.85-.33,1.3-.02.21.14.33.17.37.07.04-.1.13-.12.26-.08.14.04.26,0,.37-.13.11-.13.2-.19.26-.19s.26-.16.58-.48c.22-.24.4-.39.53-.44.13-.06.39-.1.79-.13.58-.05.88-.09.91-.12Zm-2.21,6.22c.08,0,.12-.04.12-.13s-.04-.13-.12-.13-.12.04-.12.13.04.13.12.13Zm2.66-9.79c.19-.24.44-.37.76-.4s.62.07.92.28c.26.19.41.34.47.43.06.1.07.25.04.46-.05.24-.14.43-.28.56s-.27.17-.4.11c-.13-.06-.42-.17-.86-.31-.64-.21-.96-.43-.96-.67-.02-.06.09-.22.31-.46Z"/>
      <path d="m57.16,33.1c.06-.05.24-.08.52-.08.28,0,.57.02.88.08.27.05.52.18.76.38.23.21.37.31.42.31.08,0,.16.12.23.37.07.25.08.41.04.48-.05.07-.25.2-.6.4-.56.3-1.3.37-2.23.19l-.43-.07.41-.19c.27-.13.41-.22.41-.29,0-.08-.12-.17-.35-.28-.23-.1-.41-.14-.54-.11-.24.03-.43.06-.56.08-.14.02-.24.04-.32.06s-.13.04-.14.06c-.02.02-.02.04,0,.06.03.06-.07.17-.31.31-.24.14-.39.25-.46.31-.62.69-.98,1.03-1.06,1.03-.06,0-.24.22-.53.66-.29.44-.5.81-.62,1.12-.16.37-.26.82-.31,1.37-.05.54-.02.87.1.98.08.08.12.18.12.31s.1.29.31.48c.13.13.24.21.34.24.1.03.24.03.43,0,.3-.03.69-.16,1.16-.37.47-.22.81-.35,1.01-.41.2-.06.3-.16.3-.3s.06-.2.17-.16c.11.04.17.02.17-.06,0-.05.12-.07.37-.07s.52.02.82.06c.3.04.51.09.64.16.46.21.67.5.62.86-.02.18-.09.32-.22.43-.13.11-.38.23-.77.36-.42.16-.68.29-.8.4-.12.1-.22.16-.3.16-.05,0-.22.06-.52.19-.3.13-.54.24-.73.34-.11.06-.16.13-.14.19.02.05,0,.09-.07.13-.06.04-.15.07-.26.08-.11.02-.24.03-.37.04-.14,0-.28,0-.42-.02-.14-.02-.28-.05-.41-.08-.24-.1-.42-.2-.55-.3-.13-.1-.19-.13-.19-.08,0,.06-.1-.01-.31-.23-.21-.22-.43-.47-.66-.76s-.38-.5-.44-.62c-.29-.59-.48-1.05-.59-1.37-.1-.32-.17-.7-.2-1.15-.03-.61-.08-.91-.14-.91s-.1-.04-.1-.11.04-.09.11-.05c.07.04.17-.05.29-.28s.14-.34.07-.34-.13.05-.17.14c-.04.1-.06.08-.07-.04,0-.12.14-.39.43-.82.3-.42.44-.67.44-.73s.12-.18.36-.36c.24-.18.51-.4.82-.67.26-.24.64-.5,1.15-.77.51-.27.86-.41,1.06-.41.18,0,.28-.03.32-.1s.31-.1.8-.12c.5-.02.78-.06.86-.14Z"/>
      <path d="m64.55,31.42c.18-.16.44-.22.78-.19.34.03.6.14.78.31.19.21.27.48.23.82s-.23.98-.56,1.94c-.06.16-.12.4-.18.72-.06.32-.09.59-.1.8,0,.22,0,.35.04.4.1,0,.25-.1.46-.29.21-.19.3-.31.26-.36-.02-.03-.02-.06-.01-.07,0-.02.04,0,.08.02.08.05.53-.15,1.34-.6.74-.42,1.3-.66,1.7-.73.4-.07.76,0,1.08.2.26.18.43.38.53.6.1.22.13.53.1.91-.03.37-.11.67-.23.9s-.36.57-.71,1.02c-.35.4-.6.66-.73.78-.14.12-.31.2-.52.25-.19.05-.39.14-.6.29l-.29.24.31.29c.53.46.86.7.98.7s.37-.13.72-.38.59-.48.72-.67c.19-.27.38-.4.55-.38.53,0,.85.09.96.26s.04.46-.22.84c-.24.35-.37.57-.38.65-.02.08-.15.32-.41.73-.26.41-.38.68-.38.82s-.05.24-.14.32c-.06.05-.14.08-.23.1-.09.02-.17.02-.24.01-.07,0-.11-.04-.11-.08s-.14-.12-.42-.23c-.28-.1-.44-.22-.48-.34-.04-.12-.11-.18-.2-.18s-.26-.1-.48-.31c-.27-.27-.62-.58-1.04-.94-.42-.35-.69-.56-.8-.62-.13-.08-.3-.2-.5-.37s-.5-.25-.86-.25c-.24,0-.39.02-.44.05-.06.03-.08.1-.06.22.02.19-.02.29-.1.29s-.12.14-.12.41-.04.44-.12.52c-.08.07-.16.39-.24.95-.05.43-.14.78-.28,1.04-.14.26-.28.42-.44.46-.16.04-.33-.02-.5-.18-.16-.18-.28-.26-.36-.26s-.18-.21-.29-.62c-.11-.42-.2-.87-.26-1.37-.03-.3-.09-.5-.18-.6-.09-.1-.13-.29-.13-.59s.05-.49.14-.59c.19-.21.29-.22.29-.05,0,.03,0,.07-.02.12-.03.08-.04.12-.04.13,0,0,.04-.03.11-.11.08-.11.12-.24.12-.38s-.05-.22-.14-.24c-.11,0-.1-.02.02-.07.32-.13.48-.42.48-.86.02-.26.06-.41.14-.46.08-.05.1-.1.05-.17-.08-.14.06-.6.41-1.37.13-.29.18-.46.17-.53-.02-.06.04-.16.17-.29.1-.1.15-.22.17-.37.02-.15-.02-.28-.12-.37-.1-.08-.1-.22,0-.41.11-.18.22-.46.34-.85.11-.39.17-.68.17-.85s.1-.34.29-.5Zm4.8,4.2c.05-.19.06-.3.02-.31-.03-.02-.12.04-.26.17-.14.16-.27.22-.38.17-.1-.03-.31.05-.65.24-.34.19-.63.41-.89.65-.19.19-.42.39-.67.6l-.36.31.31-.07c.22-.03.36,0,.4.1.04.1.28.03.71-.19,1.04-.58,1.63-1.13,1.78-1.66Zm1.01,3.91c-.08,0-.07-.06.02-.19.1-.13.18-.19.26-.19s.07.06-.02.19-.18.19-.26.19Z"/>
    </g>
  </g>
</svg>