<?xml version="1.0" encoding="UTF-8"?>
<svg id="b" data-name="图层 2" xmlns="http://www.w3.org/2000/svg" viewBox="0 0 434.68 210.08">
  <g id="c" data-name="图层 1">
    <g>
      <g id="d" data-name="图层 7">
        <path d="m324.81,9.06l-9.36-9.06c-11.22,11.6-27.57,22.44-74.64,22.44v12.23c23.39,0,41.21-1.15,56.61-7.25,12.1-4.85,18.94-9.73,27.39-18.36Z" style="fill: #040000;"/>
        <path d="m195.81,166.4l-7.79,10.26c13.38,9.38,25.34,20.63,35.51,33.42l11.56-11.32c-9.04-10.8-23.46-22.26-39.28-32.36Z" style="fill: #040000;"/>
        <path d="m230.24,12.23V0h-87.05v12.23h68.75c-2.07,3.91-12.89,16.26-52.53,16.26h-16.21v12.23h16.3c40.75,0,66.67-16.26,70.75-28.49Z" style="fill: #040000;"/>
        <rect x="81.27" y="155.08" width="12.23" height="30.39" style="fill: #040000;"/>
        <rect x="112.6" y="145.11" width="12.23" height="40.35" style="fill: #040000;"/>
        <path d="m51.94,154.23c0,9.64.45,26.59-14.07,49.66l14.07,6.03c10.87-26.1,12.23-33.9,12.23-59.44v-5.37h-12.23v9.11Z" style="fill: #040000;"/>
        <path d="m241.29,153.77c0,6.08-3.93,10.66-13.33,15.13l7.98,9.6c11.77-6.47,17.71-12.94,17.71-24.71v-1.71h-12.37v1.69Z" style="fill: #040000;"/>
        <path d="m170.73,144.95c-7.25,26.35-21.98,41-37.69,54.59l10.06,10.05c11.97-11.77,21.71-22.27,28.98-34.19,1.03-1.68,2.01-3.39,2.94-5.14,4.24-7.97,7.36-16.49,9.29-25.32h-13.59Z" style="fill: #040000;"/>
        <rect x="349.1" y="11" width="12.23" height="40.35" style="fill: #040000;"/>
        <path d="m382.04,11.38c0,9.64.45,169.12-14.07,192.19l14.07,6.03c10.87-26.1,12.23-176.43,12.23-201.96V2.26h-12.23v9.11Z" style="fill: #040000;"/>
      </g>
      <path d="m50.05,24.69c-1.26,3.51-1.89,6.84-1.89,9.98,0,4.32,1.08,8.25,3.24,11.8,2.16,3.55,5.35,6.54,9.58,8.97l25.5,14.71c6.83,3.78,11.98,8.41,15.45,13.9,1.84,2.92,3.13,6.1,3.89,9.51l10.21-35.68h-21.04c4.77-9.8,7.15-17.85,7.15-24.15,0-3.69-.81-7.37-2.43-11.06-2.07-4.5-4.81-8.39-8.23-11.67-3.42-3.28-7.78-6.05-13.09-8.3-6.21,1.44-11.94,4.03-17.2,7.76-5.26,3.73-8.97,8.48-11.13,14.23Z" style="fill: none;"/>
      <path d="m33.93,122.84c-4.72-5.08-7.26-10.68-7.62-16.8-.09-.81-.13-2.02-.13-3.64,0-7.29,2.11-12.95,6.34-17H7.42c-2.16,2.07-3.93,5.13-5.33,9.17-1.39,4.05-2.09,7.87-2.09,11.47,0,4.95,1.24,9.92,3.71,14.91,2.47,4.99,6.09,9.13,10.86,12.41,4.77,3.28,10.39,5.01,16.86,5.19,6.48.18,11.53-.05,15.18-.67s6.95-1.44,9.92-2.43c-10.34-3.33-17.88-7.53-22.6-12.61Z" style="fill: #e60012;"/>
      <path d="m123.31,130.19c-1.89-2.79-2.83-6.12-2.83-9.98,0-.63.09-1.75.27-3.37.63-3.96,1.53-8.14,2.7-12.55,1.17-4.41,3.96-14.25,8.36-29.55l4.86-16.86h-20.64c2.7-3.6,4.74-7.71,6.14-12.34,1.39-4.63,2.09-9.24,2.09-13.83,0-3.69-.43-7.15-1.28-10.39-.86-3.24-2.09-6.02-3.71-8.36-2.79-3.96-6.41-7.02-10.86-9.17-4.45-2.16-9.56-3.24-15.31-3.24-4.68,0-9.58.72-14.71,2.16,5.31,2.25,9.67,5.01,13.09,8.3,3.42,3.28,6.16,7.17,8.23,11.67,1.62,3.69,2.43,7.38,2.43,11.06,0,6.3-2.38,14.35-7.15,24.15h21.04l-10.21,35.68c-.76-3.41-2.04-6.58-3.89-9.51-3.46-5.49-8.61-10.12-15.45-13.9l-25.5-14.71c-4.23-2.43-7.42-5.42-9.58-8.97-2.16-3.55-3.24-7.49-3.24-11.8,0-3.15.63-6.48,1.89-9.98,2.16-5.75,5.87-10.5,11.13-14.23,5.26-3.73,11-6.32,17.2-7.76-2.97-1.08-5.62-1.8-7.96-2.16-2.34-.36-5.49-.54-9.44-.54-6.84,0-13.29,1.78-19.36,5.33-6.07,3.55-10.46,8.75-13.15,15.58-1.62,4.14-2.43,8.46-2.43,12.95,0,5.76,1.42,11.22,4.25,16.39,2.83,5.17,6.99,9.51,12.48,13.02,2.52,1.62,4.95,3.17,7.29,4.65,2.34,1.48,5.94,3.58,10.79,6.27l5.53,3.1c9.17,5.22,13.76,12.77,13.76,22.66,0,1.17-.09,2.65-.27,4.45-.72,8.36-2.97,15-6.75,19.9-3.78,4.9-9.31,8.61-16.59,11.13,3.78,1.17,6.97,1.98,9.58,2.43,2.61.45,6.12.67,10.52.67,5.21,0,10.07-1.82,14.57-5.46,3.38-2.74,6.26-6,8.65-9.8.45,4.56,2,8.13,4.71,10.68,3.24,3.06,7.69,4.59,13.36,4.59,2.52,0,4.77-.27,6.75-.81,1.98-.54,4.05-1.35,6.21-2.43-3.15-.63-5.67-2.34-7.55-5.13Z" style="fill: #e60012;"/>
      <path d="m159.33,132.35c1.26,1.98,3.04,3.51,5.33,4.59,2.29,1.08,4.74,1.62,7.35,1.62s4.77-.27,6.75-.81c1.98-.54,4.05-1.35,6.21-2.43-3.15-.63-5.67-2.34-7.56-5.13-1.89-2.79-2.83-6.12-2.83-9.98,0-.63.09-1.75.27-3.37.63-3.96,1.53-8.14,2.7-12.55,1.17-4.41,3.96-14.25,8.36-29.55l4.86-16.86h-20.64c-3.96,13.76-6.84,23.68-8.63,29.75-1.8,6.07-3.87,12.8-6.21,20.17-2.16,6.66-5.11,12.1-8.84,16.32-3.73,4.23-8.93,7.96-15.58,11.2,3.06,2.16,7.02,3.24,11.87,3.24,6.83,0,12.37-2.07,16.59-6.21Z" style="fill: #e60012;"/>
      <path d="m199.94,92.14c-1.17,4.41-3.96,14.26-8.36,29.55l-4.86,16.86h20.64c3.96-13.76,6.83-23.68,8.63-29.75,1.8-6.07,3.87-12.79,6.21-20.17,2.16-6.65,5.1-12.1,8.84-16.32,3.73-4.23,8.93-7.96,15.58-11.2-3.06-2.16-7.02-3.24-11.87-3.24-6.84,0-12.37,2.07-16.59,6.21-1.26-1.98-3.04-3.51-5.33-4.59-2.29-1.08-4.75-1.62-7.35-1.62s-4.77.27-6.75.81c-1.98.54-4.05,1.35-6.21,2.43,3.15.63,5.67,2.34,7.56,5.13,1.89,2.79,2.83,6.12,2.83,9.98,0,.63-.09,1.75-.27,3.37-.63,3.96-1.53,8.14-2.7,12.55Z" style="fill: #e60012;"/>
      <path d="m254.17,66.24c1.89,2.79,2.83,6.12,2.83,9.98,0,.63-.09,1.75-.27,3.37-.63,3.96-1.53,8.14-2.7,12.55-1.17,4.41-3.96,14.26-8.36,29.55l-4.86,16.86h20.64l14.44-50.46c1.26-4.32,1.89-8.36,1.89-12.14,0-5.94-1.62-10.43-4.86-13.49-3.24-3.06-7.69-4.59-13.36-4.59-2.52,0-4.77.27-6.75.81-1.98.54-4.05,1.35-6.21,2.43,3.15.63,5.67,2.34,7.56,5.13Z" style="fill: #e60012;"/>
      <path d="m288.97,92.14c-1.17,4.41-3.96,14.26-8.36,29.55l-4.86,16.86h20.64c3.96-13.76,6.83-23.68,8.63-29.75,1.8-6.07,3.87-12.79,6.21-20.17,2.16-6.65,5.1-12.1,8.84-16.32,3.73-4.23,8.92-7.96,15.58-11.2,3.15.63,5.67,2.34,7.55,5.13,1.89,2.79,2.83,6.12,2.83,9.98,0,.63-.09,1.75-.27,3.37-.63,3.96-1.53,8.14-2.7,12.55-1.17,4.41-3.96,14.26-8.36,29.55l-4.86,16.86h16.59l-69.48,71.37h24.69c27.34-27.88,47.13-47.98,59.36-60.3,12.23-12.32,25.95-25.95,41.15-40.88l4.05-4.05c8.36-8,14.71-14.39,19.02-19.16,4.32-4.77,7.15-8.9,8.5-12.41.63-1.53.94-3.01.94-4.45,0-3.24-1.4-5.8-4.18-7.69-2.79-1.89-5.94-2.83-9.44-2.83-2.52,0-4.81.23-6.88.67-2.07.45-4.23,1.21-6.48,2.29,2.43,1.17,3.64,2.83,3.64,4.99,0,2.34-1.44,5.4-4.32,9.17-2.88,3.78-7.38,8.77-13.49,14.97l-41.36,42.44,12.76-44.6c1.26-4.32,1.89-8.36,1.89-12.14,0-5.94-1.62-10.43-4.86-13.49-3.24-3.06-7.69-4.59-13.36-4.59-2.52,0-4.77.27-6.75.81-1.97.54-4.04,1.35-6.19,2.42,0,0,0,0-.01,0-3.06-2.16-7.02-3.24-11.87-3.24-6.84,0-12.37,2.07-16.59,6.21-1.26-1.98-3.04-3.51-5.33-4.59-2.29-1.08-4.75-1.62-7.35-1.62s-4.77.27-6.75.81c-1.98.54-4.05,1.35-6.21,2.43,3.15.63,5.67,2.34,7.56,5.13,1.89,2.79,2.83,6.12,2.83,9.98,0,.63-.09,1.75-.27,3.37-.63,3.96-1.53,8.14-2.7,12.55Z" style="fill: #e60012;"/>
      <polyline points="292.19 51.2 292.19 51.2 292.19 39.77 279.38 39.77 279.38 51.2 279.38 51.2" style="fill: #040000;"/>
      <polyline points="292.19 184.49 292.19 160.79 292.19 149.36 279.38 149.36 279.38 160.79 279.38 197.87" style="fill: #040000;"/>
      <polyline points="324.81 149.43 324.81 125.73 324.81 114.3 312 114.3 312 125.73 312 162.81" style="fill: #040000;"/>
    </g>
  </g>
</svg>