<svg xmlns="http://www.w3.org/2000/svg" viewBox="0 0 1695.4 144.88"><title>资源 1</title><g id="图层_2" data-name="图层 2"><g id="图层_7" data-name="图层 7"><polygon points="1473.48 25.87 1473.48 0.62 1445.2 0.62 1445.2 25.87 1445.2 33.72 1441.66 33.72 1361.5 33.72 1361.5 60.72 1441.66 60.72 1445.2 60.72 1445.2 143.92 1473.48 143.92 1473.48 60.72 1560.83 60.72 1560.83 33.72 1473.48 33.72 1473.48 25.87"/><path d="M1520.75,86.55v57.34h30.19c-2.85-25-3.17-32-3.19-57.34Z"/><path d="M1332.21,33.15l-20.66-20c-24.77,25.62-60.88,49.55-164.82,49.55v27c51.65,0,91-2.54,125-16C1298.44,63,1313.55,52.22,1332.21,33.15Z"/><path d="M760.44,47.71,743.23,70.36a375.35,375.35,0,0,1,78.41,73.8l25.53-25C827.2,95.31,795.36,70,760.44,47.71Z"/><polygon points="484.26 28.51 608.01 28.51 608.01 94.85 636.22 94.85 636.22 28.51 636.22 15.01 636.22 1.51 457.26 1.51 457.26 6.59 457.26 28.51 457.26 94.85 484.26 94.85 484.26 28.51"/><path d="M422,27V0H229.77V27H381.58c-4.56,8.63-28.47,35.91-116,35.91h-35.8v27h36C355.77,89.91,413,54,422,27Z"/><rect x="95.83" y="22" width="27" height="67.11"/><rect x="165.01" width="27" height="89.1"/><path d="M31.07,20.12c0,21.29,1,58.72-31.07,109.66L31.07,143.1c24-57.64,27-74.86,27-131.25V0h-27Z"/><path d="M1379.66,90.28c0,13.42-8.68,23.54-29.43,33.4l17.63,21.2c26-14.28,39.11-28.57,39.11-54.56V86.55h-27.31Z"/><path d="M725,.35c-16,58.18-48.54,90.54-83.22,120.54L664,143.09c26.44-26,47.95-49.18,64-75.49,2.27-3.72,4.43-7.49,6.49-11.35A218,218,0,0,0,755,.35Z"/><rect x="1593.33" width="27" height="89.1"/><path d="M1668.4,20.12c0,21.29,1,58.72-31.07,109.66l31.07,13.32c24-57.64,27-74.86,27-131.25V0h-27Z"/></g></g></svg>