<svg xmlns="http://www.w3.org/2000/svg" viewBox="0 0 1135.27 679.08"><defs><style>.cls-1{fill:#1f1f1f;}</style></defs><title>资源 6</title><g id="图层_2" data-name="图层 2"><g id="图层_1-2" data-name="图层 1"><polygon class="cls-1" points="812.42 171.17 812.42 134.61 771.46 134.61 771.46 171.17 771.46 182.54 766.34 182.54 650.24 182.54 650.24 221.65 766.34 221.65 771.46 221.65 771.46 678.65 812.42 678.65 812.42 221.65 938.92 221.65 938.92 182.54 812.42 182.54 812.42 171.17"/><path class="cls-1" d="M880.88,259.06V639.92h43.71C920.48,473.84,920,427.59,920,259.06Z"/><rect class="cls-1" x="986.54" y="45.78" width="39.1" height="510.89"/><path class="cls-1" d="M918.86,28.92,888.94,0c-35.87,37.1-88.17,71.75-238.7,71.75v39.11c74.8,0,131.86-3.68,181-23.25C870,72.17,891.83,56.54,918.86,28.92Z"/><path class="cls-1" d="M1096.16,13.92v300c0,174.86,1.39,257.06-45,345.43l45,19.29c32.59-97.68,39.11-110.41,39.11-270.56V13.92Z"/><path class="cls-1" d="M501,533.55l-29.42,38.64c43.66,30.87,80.89,65.79,113.55,106.89l37-36.16C593.16,608.32,548.75,565.75,501,533.55Z"/><rect class="cls-1" x="138.78" y="45.78" width="39.1" height="554.67"/><rect class="cls-1" x="238.97" y="13.92" width="39.1" height="586.53"/><path class="cls-1" d="M475.3,253.42H436.2v91.73c0,170.69-64.68,238.86-135.62,300.23l32.14,32.13c38.3-37.6,69.45-71.22,92.76-109.32q4.93-8.07,9.4-16.43c26.48-49.67,40.42-108.33,40.42-192.84Z"/><polygon class="cls-1" points="371.86 221.65 551.07 221.65 551.07 483.14 591.92 483.14 591.92 221.65 591.92 202.09 591.92 182.54 332.76 182.54 332.76 189.91 332.76 221.65 332.76 483.14 371.86 483.14 371.86 221.65"/><path class="cls-1" d="M611.13,53V13.92H332.76V53H552.62c-6.62,12.49-41.25,52-168,52H332.76v39.1h52.13C515.23,144.13,598.1,92.12,611.13,53Z"/><path class="cls-1" d="M45,313.93C45,488.79,46.37,571,0,659.36l45,19.29C77.57,581,84.09,568.24,84.09,408.09V13.92H45Z"/><path class="cls-1" d="M676.54,279.72c0,132.92-21.16,209.53-67.45,282.69l37.79,35.46c36-63.67,69.22-137,69.22-306.5V259.06H676.54Z"/></g></g></svg>